<svg width="49" height="44" viewBox="0 0 49 44" fill="none" xmlns="http://www.w3.org/2000/svg">
<path d="M0 41.6042L1.6 43.8145C19.4 30.1509 23 20.707 23 11.8659C23 5.03407 19.8 0.814453 15 0.814453C10.8 0.814453 8.4 4.0294 8.4 7.44529C8.4 13.8752 16.8 13.4733 16.8 20.707C16.8 24.9266 13.2 31.1556 0 41.6042ZM26 41.6042L27.6 43.8145C45.4 30.1509 49 20.707 49 11.8659C49 5.03407 45.8 0.814453 41 0.814453C36.8 0.814453 34.4 4.0294 34.4 7.44529C34.4 13.8752 42.8 13.4733 42.8 20.707C42.8 24.9266 39.2 31.1556 26 41.6042Z" fill="black"/>
</svg>
