<svg width="49" height="44" viewBox="0 0 49 44" fill="none" xmlns="http://www.w3.org/2000/svg">
<path d="M49 3.02474L47.4 0.814453C29.6 14.478 26 23.9219 26 32.7631C26 39.5948 29.2 43.8145 34 43.8145C38.2 43.8145 40.6 40.5995 40.6 37.1836C40.6 30.7537 32.2 31.1556 32.2 23.9219C32.2 19.7023 35.8 13.4733 49 3.02474ZM0 32.7631C0 39.5948 3.2 43.8145 8 43.8145C12.2 43.8145 14.6 40.5995 14.6 37.1836C14.6 30.7537 6.2 31.1556 6.2 23.9219C6.2 19.7023 9.8 13.4733 23 3.02474L21.4 0.814453C3.6 14.478 0 23.9219 0 32.7631Z" fill="black"/>
</svg>
